<?xml version="1.0" encoding="UTF-8"?>
<svg id="Layer_2" data-name="Layer 2" xmlns="http://www.w3.org/2000/svg" viewBox="0 0 1584.06 2078.3">
  <defs>
    <style>
      .cls-1 {
        fill: #f6f6f6;
        fill-rule: evenodd;
      }
    </style>
  </defs>
  <g id="Layer_1-2" data-name="Layer 1">
    <g>
      <path class="cls-1" d="M1349.02,953.14l60.97-22.54-49.09,42.55-11.88-20.01ZM1278.51,949.97l13.96,23.53,35.39-12.8,16.06,27.05-28.09,25.08,15.38,25.89,105.83-101.67-18.87-31.78-139.66,44.69h0ZM1470.32,1000.19l8.66,27-99.71,50.83,110.61-16.77,7.77,24.21-99.17,52.5,109.96-18.79,8.59,26.8-142.21,17.43-9.87-30.88,94.08-48.44-104.07,17.35-9.95-31.09,125.31-70.15ZM1443.44,1228.22l64.67,6.19-62.67,17-2-23.19h0ZM1381.28,1194.74l2.36,27.26,37.42,3.83,2.71,31.39-36.17,10.36,2.58,29.99,139.5-45.6-3.19-36.81-145.21-20.41ZM1466.6,1352.02l40.45,4.25c-.13,2.94-.43,5.85-.71,8.56-1.57,14.97-3.03,19.53-7.31,22.83-3.64,2.97-9.07,3.96-15.89,3.27-10.08-1.09-15.6-4.81-17.25-11.65-1.27-4.66-1.17-9.38.03-20.82l.69-6.45ZM1389.26,1317.36l-2.76,26.24,60.84,6.38c-.06,2.22-.23,4.44-.51,6.64-1.52,14.57-3.09,20.12-6.99,23.63-4.36,4.07-10.16,5.05-22.01,3.8l-6.03-.64c-9.14-.99-14.41-1.32-19.93-1.12-3.35.05-5.14.26-9.52.96l-3.37,32.07c2.62-2.13,5.66-3.68,8.92-4.57,4.66-1.3,13.88-1.09,26.15.18l1.75.21,1.92.18c13.61,1.44,17.94,1.32,22.67-.56,2.45-.91,4.76-2.26,6.54-4.23,2.61-2.45,4.31-5.24,6.94-11.83,1.72,8.03,3.29,11.72,6.51,14.82,4.79,5.02,11.78,7.73,21.87,8.79,13.83,1.44,23.25-.53,29.39-6.36,6.96-6.54,10.95-16.34,12.49-31.13l5.14-48.79-140-14.71h0ZM1385.3,1467.07l95.22,30.17-1.35,4.28c-4.79,15.07-6.76,19.38-10.13,21.61-7.47,5.42-18.85,4.46-43.45-3.32-29.82-9.43-41.59-15.63-45.63-23.66-1.85-3.88-1.06-8.96,3.96-24.8l1.37-4.28h0ZM1373.8,1435.34l-11.37,35.97c-4.03,12.67-5.19,17.02-5.85,22.97-1.17,7.6-.35,12.79,2.39,18.39,6.16,13,21.66,22.24,53.73,32.37,36.35,11.53,51.8,12.52,64.42,3.8,7.87-5.5,12.67-13.42,17.6-29.08l13.29-41.92-134.21-42.5ZM191.8,1428.45c7.98,1.14,11.5,2.23,15.52,5.21,6.26,4.63,9.38,10.29,12.61,22.57,4.62,17.57.14,30.5-13.7,40.18-4.28,2.97-8.9,5.37-13.66,7.22-10.1,3.88-25.02,8.61-36.74,11.7-24.02,6.3-35.56,7.73-47.21,5.72-15.47-2.79-26.11-14.75-31.43-34.95-3.33-12.7-3.46-23.97-.06-32.53,1.84-4.53,4.73-8.55,8.44-11.72,6.23-5.47,11.66-7.92,25.93-12.09l6.51,24.77c-7.89,2.28-10.95,3.67-14.8,6.72-6.07,4.63-8.16,11.24-6.07,19.18,1.93,7.37,6.41,12.06,13.24,13.5,3,.64,6.46.74,11.34.08,6.86-.8,12.97-2.2,30.74-6.89,10.58-2.79,18.66-5.1,24.37-7.22,5.33-1.72,10.41-4.14,15.1-7.2,6.29-4.49,8.55-10.53,6.55-18.11-1.3-4.92-3.99-9.04-7.63-11.32-2.09-1.19-4.36-2.02-6.72-2.48-4.66-.8-8.35-.23-18.22,2.15-2.44.45-4.85,1.03-7.24,1.73l4.82,18.34-21.56,5.68-11.53-43.88,73.54-19.35,4.37,16.64-16.52,6.34h0ZM118.91,1367.91l-40.53,3.09c-.42-2.89-.65-5.82-.86-8.53-1.15-15.02-.54-19.75,3.07-23.79,3.06-3.57,8.2-5.53,15.02-6.03,10.14-.79,16.23,1.88,19.07,8.34,2.1,4.36,2.85,8.99,3.72,20.49l.51,6.43h0ZM201.23,1388.06l-2.01-26.32-61.01,4.66c-.35-2.13-.53-4.46-.7-6.61-1.13-14.62-.58-20.34,2.63-24.5,3.55-4.79,9.08-6.78,20.97-7.7l6.04-.45c9.17-.71,14.41-1.3,19.8-2.5,3.29-.64,5.01-1.17,9.21-2.66l-2.45-32.17c-2.72,2.97-4.94,4.71-7.98,6.11-4.34,2.1-13.45,3.59-25.72,4.54l-1.76.13-1.95.16c-13.64,1.04-17.89,1.97-22.19,4.63-2.3,1.3-4.25,3.13-5.68,5.34-2.13,2.92-3.27,5.93-4.7,12.92-3.13-7.63-5.34-10.97-9.07-13.42-5.6-4.07-12.97-5.47-23.1-4.71-13.84,1.06-22.77,4.68-27.74,11.53-5.68,7.7-7.83,18.07-6.69,32.88l3.75,48.91,140.33-10.75ZM55.11,1268.51l6.55-75.16,23.16,2-4.19,48.13,33.31,2.88,3.9-44.78,22,1.91-3.9,44.81,38.18,3.32,4.29-49.27,23.57,2.05-6.65,76.35-140.22-12.23h0ZM67.97,1157.19l17.89-73.29,22.61,5.51-11.45,46.91,32.48,7.92,10.66-43.68,21.46,5.24-10.66,43.67,37.22,9.09,11.71-48.05,23,5.62-18.17,74.43-136.74-33.37h0ZM97.73,1046.89l15.24-34.93,119.45,17.55-106.79-46.59,9.69-22.2,129.01,56.25-15.47,35.47-118.83-17.04,106.09,46.25-9.39,21.52-129-56.28h0ZM299.25,927.2l-77.96-62.45,2.8-3.51c9.91-12.36,13.29-15.65,17.24-16.5,8.91-2.37,19.2,2.61,39.34,18.74,24.41,19.55,33.16,29.57,34.02,38.52.34,4.28-2.23,8.73-12.62,21.7l-2.81,3.5h0ZM298.54,960.92l23.58-29.45c8.31-10.38,10.97-14.01,13.74-19.31,3.85-6.68,4.94-11.8,4.41-18.02-1.04-14.34-12.19-28.55-38.44-49.57-29.75-23.83-43.84-30.34-58.73-26.74-9.35,2.28-16.64,7.96-26.9,20.78l-27.51,34.32,109.85,88h0ZM340.75,807.45l-2.68-3.1c-17.68-20.38-23.07-28.38-23.36-35.9-.21-4.99,2.08-9.82,6.51-13.67,4.86-4.23,9.95-5.53,15.54-4.16,4.62,1.15,8.44,3.79,13.75,9.29,8.18,8.51,16.15,17.21,23.92,26.1,16.78,19.34,22.24,28.33,22.07,36.48-.14,4.01-2.08,7.76-6.07,11.21-6.78,5.89-14.2,6.89-21.1,2.52-6.08-3.74-9.96-7.61-28.57-28.75h0ZM321.31,827.68c22.3,25.71,35.21,34.93,50.13,35.69,10.23.45,20.95-4.18,31.44-13.27,16.68-14.49,22.31-29.18,17.07-45.36-3.54-10.64-10.3-20.82-23.88-36.47l-4.36-5.02c-11.34-12.17-19.87-20.82-25.07-25.63-3.47-2.82-7.19-5.31-11.12-7.43-16.56-8.66-30.76-5.93-48.05,9.07-15.5,13.45-21.05,27.33-16.55,42.06,4.02,13.59,11.05,24.06,30.39,46.35h0ZM367.26,694.06l25.56-15.52,81.59,92.46-46.02-114.1,24.21-14.72,46.72,136.33-30.75,18.68-101.32-103.12h0ZM478.53,630.34l69.75-28.79,8.88,21.5-44.64,18.43,12.75,30.89,41.57-17.16,8.43,20.43-41.57,17.15,14.62,35.42,45.72-18.87,9.03,21.87-70.84,29.23-53.69-130.1h0ZM465.69,1243.11c0,17.02,0,22.52,19.78,22.52v3.77h-73.05v-3.77c19.79,0,19.79-5.5,19.79-22.52v-86.74c0-17.07,0-22.54-19.79-22.54v-3.77h73.06v3.77c-19.78,0-19.78,5.47-19.78,22.54v86.74h-.01ZM589.89,1173.21h-3.79c-2.31-18.72-19.16-38.3-39.17-38.3-11.58,0-23.36,5.68-23.36,18.52,0,28.42,75.37,29.69,75.37,76.2,0,26.32-22.96,42.96-47.79,42.96-10.95,0-17.9-2.1-27.57-6.3-2.11-.83-5.49-1.89-7.79-1.89-4.85,0-9.05,4.01-10.53,8.21h-3.79v-52.64h3.79c3.16,22.54,20.84,45.5,45.06,45.5,12,0,25.27-7.17,25.27-20.44,0-32.19-74.32-30.93-74.32-78.09,0-23.58,20.22-40,42.74-40,10.1,0,16.63,1.89,25.47,6.33,2.96,1.47,6.11,3.14,9.47,3.14,5.68,0,6.11-5.05,7.16-9.47h3.79v46.29h.01ZM688.85,1264.58c-32.42,0-37.05-40.21-37.05-64.82s4.63-64.85,37.05-64.85,37.04,40.21,37.04,64.85c.01,24.62-4.62,64.82-37.04,64.82ZM688.85,1272.58c42.51,0,74.1-29.66,74.1-72.83s-31.58-72.85-74.1-72.85-74.11,29.69-74.11,72.85,31.58,72.83,74.11,72.83ZM468.73,1561.79c0,42,0,50.79,33.55,50.79v7.22h-120.71v-7.22c37.69,0,37.69-8.79,37.69-50.79v-129.96c0-22.01,0-36.81-16.6-36.81-7.95,0-13.83,2.41-21.09,6l-2.78-6.81,84.04-44.78h5.88v212.35h.01,0ZM553.81,1520.6l66.74-105.96h.7v105.96h-67.44ZM537.54,1519.81v40.79h83.71v59.19h45.65v-59.19h21.1v-40h-21.1v-171.16h-21.09l-108.27,170.37ZM788.29,1611.79c-22.48,0-22.83-24.8-22.83-124.38s.35-124.38,22.83-124.38,22.84,24.8,22.84,124.38-.35,124.38-22.84,124.38ZM788.29,1625.37c38.04,0,74.02-45.58,74.02-137.96s-35.97-137.99-74.02-137.99-74.01,45.6-74.01,137.99,35.97,137.96,74.01,137.96ZM961.23,1611.79c-22.46,0-22.83-24.8-22.83-124.38s.35-124.38,22.83-124.38,22.83,24.8,22.83,124.38-.34,124.38-22.83,124.38ZM961.23,1625.37c38.05,0,74.02-45.58,74.02-137.96s-35.97-137.99-74.02-137.99-74.02,45.6-74.02,137.99,35.99,137.96,74.02,137.96ZM1160.43,1561.79c0,42,0,50.79,33.57,50.79v7.22h-120.71v-7.22c37.69,0,37.69-8.79,37.69-50.79v-129.96c0-22.01,0-36.81-16.59-36.81-7.95,0-13.83,2.41-21.1,6l-2.76-6.81,84.04-44.78h5.85v212.35h.01ZM702.81,2039.13c0,9.09-1.21,16.24-3.63,21.37-2.43,5.16-6.47,9.01-12.13,11.56s-13.23,4.2-22.68,5.02c-9.45.79-22.49,1.22-39.14,1.22-18.94,0-32.75-.32-41.44-.93-8.69-.61-15.72-2.28-21.09-4.97-5.38-2.68-9.17-7.07-11.36-13.15-2.19-6.08-3.29-14.94-3.29-26.68h39.71c0,4.2.23,7.15.74,8.85.49,1.7,1.85,2.97,4.05,3.8,2.2.86,5.49,1.39,9.86,1.57,4.37.16,12.04.26,23.01.26s18.69-.05,23.09-.16,7.69-.38,9.86-.83,3.5-1.17,3.99-2.1c.51-.91.77-2.56.77-4.86,0-3.37-.82-5.75-2.43-7.12-1.62-1.36-4.82-2.33-9.62-2.81-4.79-.48-13.35-.88-25.65-1.25-18.14-.43-31.81-1.17-41-2.15-9.18-1.01-16.32-2.84-21.4-5.58-4.91-2.52-8.64-6.86-10.39-12.09-1.85-5.37-2.76-13.05-2.76-23.02,0-9.35,1.35-16.64,4.03-21.91,2.65-5.27,7.12-9.41,12.58-11.65,5.71-2.45,12.83-4.01,21.37-4.71,8.53-.69,20.76-1.04,36.68-1.04,18.34,0,31.76.3,40.26.91,8.51.58,15.41,2.2,20.7,4.84,5.29,2.61,9.05,6.94,11.27,12.94,2.22,5.98,3.33,14.67,3.33,26.02h-39.71c0-3.98-.23-6.78-.69-8.4s-1.69-2.79-3.68-3.57c-2.01-.77-5.14-1.25-9.36-1.41-7.31-.24-14.62-.33-21.93-.27-10.23,0-17.42.05-21.53.16-4.11.13-7.19.43-9.22.86-2.02.48-3.26,1.19-3.71,2.15-.45.99-.69,2.68-.69,5.14,0,3.06.96,5.29,2.91,6.67,1.93,1.39,5.33,2.33,10.18,2.81,4.85.51,12.44.86,22.76,1.12,17.68.43,31.26,1.22,40.78,2.33,9.49,1.12,16.95,3.09,22.32,5.93,5.38,2.81,9.1,6.96,11.18,12.44,2.09,5.41,3.13,13.01,3.13,22.71h0ZM879.8,2002.4c0,22.04-.53,37.5-1.6,46.35-1.09,8.85-4.03,15.45-8.85,19.8s-12.14,7.04-21.93,8-26.93,1.47-51.35,1.47c-22.41,0-38.86-.61-49.34-1.85-10.51-1.27-18.26-3.96-23.27-8.08-5.02-4.12-8.17-10.13-9.47-17.99-1.3-7.9-1.93-20.7-1.93-38.43s.65-30.6,1.93-38.48c1.3-7.9,4.45-13.9,9.48-18.04s12.79-6.81,23.25-8.03c10.45-1.25,26.9-1.85,49.34-1.85s37.11.38,47.17,1.19c10.05.79,17.78,2.66,23.18,5.63,5.34,2.97,8.92,7.55,10.71,13.68,1.78,6.13,2.66,15.47,2.66,28.07h-39.67c0-4.46-.27-7.57-.86-9.35-.56-1.78-2.1-3.09-4.59-3.96-2.48-.83-6.33-1.39-11.58-1.6s-14.29-.3-27.18-.3-21.88.21-27.03.61-9.03,1.6-11.59,3.51c-2.57,1.95-4.12,4.86-4.7,8.74-.54,3.88-.83,10.66-.83,20.34s.3,16.26.88,20.12,2.15,6.74,4.71,8.61c2.56,1.89,6.42,3.06,11.61,3.48,5.17.4,14.23.61,27.12.61s21.89-.08,27.08-.27c5.19-.18,9.01-.66,11.5-1.41s4.01-1.92,4.59-3.5c.56-1.57.86-4.28.86-8.21h-49.09v-28.88h88.78v.03ZM1040.41,2039.13c0,9.09-1.19,16.24-3.62,21.37-2.44,5.16-6.48,9.01-12.14,11.56-5.68,2.53-13.23,4.2-22.7,5.02-9.45.79-22.49,1.22-39.14,1.22-18.92,0-32.72-.32-41.41-.93s-15.73-2.28-21.1-4.97-9.14-7.07-11.35-13.15-3.32-14.94-3.32-26.68h39.71c0,4.2.26,7.15.74,8.85.51,1.7,1.85,2.97,4.05,3.8,2.2.86,5.5,1.39,9.88,1.57,4.36.16,12.01.26,22.97.26s18.69-.05,23.1-.16c3.3,0,6.6-.28,9.86-.83,2.15-.45,3.5-1.17,4.01-2.1.51-.91.74-2.56.74-4.86,0-3.37-.8-5.75-2.41-7.12-1.62-1.36-4.81-2.33-9.6-2.81-4.81-.48-13.35-.88-25.68-1.25-18.13-.43-31.79-1.17-40.98-2.15-9.2-1.01-16.32-2.84-21.37-5.58-4.92-2.51-8.66-6.85-10.41-12.09-1.85-5.37-2.76-13.05-2.76-23.02,0-9.35,1.32-16.64,4.01-21.91,2.67-5.27,7.15-9.4,12.62-11.65,5.69-2.45,12.81-4.01,21.35-4.71,8.56-.69,20.78-1.04,36.68-1.04,18.37,0,31.76.3,40.27.91,8.48.58,15.41,2.2,20.7,4.84,5.29,2.61,9.07,6.94,11.27,12.94,2.23,5.98,3.32,14.67,3.32,26.02h-39.7c0-3.98-.23-6.78-.69-8.4s-1.7-2.79-3.7-3.57c-2.02-.77-5.12-1.25-9.35-1.41-7.32-.24-14.64-.33-21.96-.27-10.23,0-17.41.05-21.5.16-3.09.03-6.18.32-9.22.86-2.02.48-3.27,1.19-3.72,2.15-.45.99-.69,2.68-.69,5.14,0,3.06.96,5.29,2.92,6.67,1.92,1.39,5.32,2.33,10.18,2.81,4.86.51,12.44.86,22.75,1.12,17.68.43,31.26,1.22,40.79,2.33,9.49,1.12,16.95,3.09,22.32,5.93,5.37,2.81,9.09,6.96,11.17,12.44,2.1,5.41,3.14,13.01,3.14,22.71h0ZM722.42,1750.05l69.61,103.06,118.36-183.28,5.02,85.21-117.8,160.42-74.77-90.68-.42-74.73h0Z"/>
      <path class="cls-1" d="M792.02,728.01c-314.34,0-570.07,255.72-570.07,570.06,0,226.74,133.08,422.93,325.22,514.72l10.45-28.3c-180.68-87.42-305.59-272.6-305.59-486.42,0-297.75,242.24-539.98,539.98-539.98s539.98,242.24,539.98,539.98c0,212.3-123.19,396.29-301.78,484.47l11.65,27.82c189.42-92.79,320.21-287.51,320.21-512.28.03-314.35-255.7-570.07-570.05-570.07h0Z"/>
      <path class="cls-1" d="M792.02,506.03C355.29,506.03,0,861.34,0,1298.05c0,322.12,193.39,599.72,470.06,723.36l10.44-28.25C215.29,1873.83,30.08,1607.24,30.08,1298.04c0-420.14,341.82-761.96,761.96-761.96s761.96,341.82,761.96,761.96c0,304.34-179.37,567.5-437.91,689.5l11.62,27.77c269.38-126.56,456.35-400.47,456.35-717.27-.01-436.7-355.31-792.01-792.04-792.01h0Z"/>
      <path class="cls-1" d="M1509.73,0s-100.41,184.17-213.87,294.85c-117.08,114.2-247.28,155.03-247.28,155.03,0,0,26.32-68.17,26.32-115.29,0-65.19-26.32-115.29-26.32-115.29,0,0-3.64,195.43-88.84,238.03-85.24,42.61-92.86,92.8-92.86,92.8,0,0-5.8-21.13-14.46-36.67-9.45-16.99-21.87-28.49-21.87-28.49,0,0-22.57-27.56-67.68-23.8-45.11,3.76-53.89,65.16-53.89,65.16l-50.13,53.89,63.28-15.03,22.57,7.51s-12.79,117.67,22.11,215.12c32.7,91.27,113.2,162.71,113.2,162.71l-118.41,140.98s71.83,93.14,150.28,125.33c67.29,27.61,142.94-5.02,142.94-5.02l30.09,20.67s49.49-46.08,75.03-105.11c31.21-72.18,39.62-159.94,39.62-159.94,0,0-15.84-16.86-39.92-32.31-25.67-16.47-59.71-31.61-59.71-31.61,0,0-13.13-2.15-15.17-10.8-2.58-10.83,5.77-28.68,5.77-28.68,0,0,69.97-39.97,107.86-102.95,34.31-57.02,36.89-137.65,36.89-137.65,0,0,20.34-33.36,31.46-65.3,11.45-32.89,13.66-64.39,13.66-64.39,0,0,31.97-24.97,48.16-47.02,14.77-20.16,19.51-48.84,19.51-48.84l-26.32-3.76s42.1-33.54,68.25-66.46c28.27-35.59,50.18-80.17,50.18-80.17l-20.67-1.88s44.84-68.7,66.26-126.97C1509.36,54.41,1509.73,0,1509.73,0h0ZM765.93,530.14c-5.89,0-10.66-4.79-10.65-10.67,0-5.89,4.79-10.66,10.67-10.65h0c5.89,0,10.66,4.79,10.65,10.67,0,5.89-4.79,10.66-10.67,10.65Z"/>
      <path class="cls-1" d="M1509.73,0s-100.41,184.17-213.87,294.85c-117.08,114.2-247.28,155.03-247.28,155.03,0,0,26.32-68.17,26.32-115.29,0-65.19-26.32-115.29-26.32-115.29,0,0-3.64,195.43-88.84,238.03-85.24,42.61-92.86,92.8-92.86,92.8,0,0-5.8-21.13-14.46-36.67-9.45-16.99-21.87-28.49-21.87-28.49,0,0-22.57-27.56-67.68-23.8-45.11,3.76-53.89,65.16-53.89,65.16l-50.13,53.89,63.28-15.03,22.57,7.51s-12.79,117.67,22.11,215.12c32.7,91.27,113.2,162.71,113.2,162.71l-118.41,140.98s71.83,93.14,150.28,125.33c67.29,27.61,142.94-5.02,142.94-5.02l30.09,20.67s49.49-46.08,75.03-105.11c31.21-72.18,39.62-159.94,39.62-159.94,0,0-15.84-16.86-39.92-32.31-25.67-16.47-59.71-31.61-59.71-31.61,0,0-13.13-2.15-15.17-10.8-2.58-10.83,5.77-28.68,5.77-28.68,0,0,69.97-39.97,107.86-102.95,34.31-57.02,36.89-137.65,36.89-137.65,0,0,20.34-33.36,31.46-65.3,11.45-32.89,13.66-64.39,13.66-64.39,0,0,31.97-24.97,48.16-47.02,14.77-20.16,19.51-48.84,19.51-48.84l-26.32-3.76s42.1-33.54,68.25-66.46c28.27-35.59,50.18-80.17,50.18-80.17l-20.67-1.88s44.84-68.7,66.26-126.97C1509.36,54.41,1509.73,0,1509.73,0h0ZM765.93,530.14c-5.89,0-10.66-4.79-10.65-10.67,0-5.89,4.79-10.66,10.67-10.65h0c5.89,0,10.66,4.79,10.65,10.67,0,5.89-4.79,10.66-10.67,10.65Z"/>
    </g>
  </g>
</svg>