<?xml version="1.0" encoding="UTF-8"?>
<svg id="Layer_2" data-name="Layer 2" xmlns="http://www.w3.org/2000/svg" viewBox="0 0 390.71 82.66">
  <defs>
    <style>
      .cls-1 {
        fill-rule: evenodd;
      }
    </style>
  </defs>
  <g id="Layer_1-2" data-name="Layer 1">
    <g>
      <g>
        <path d="M99.87,57.53c-1.58-2.31-2.37-5.02-2.37-8.14l6.92.06c.04,2.86,1.22,5.13,3.52,6.79,2.31,1.67,5.38,2.52,9.23,2.56,3.59,0,6.44-.66,8.56-1.99,2.11-1.32,3.17-3.12,3.17-5.38,0-1.45-.5-2.67-1.51-3.65-1-.98-2.45-1.71-4.33-2.18l-11.92-2.69c-4.06-.94-7.13-2.47-9.2-4.58-2.07-2.11-3.11-4.77-3.11-7.98,0-3.84,1.63-6.88,4.9-9.1s7.7-3.33,13.3-3.33,10.17,1.38,13.46,4.13c3.29,2.76,4.96,6.55,5,11.38h-6.86c-.04-2.99-1.11-5.33-3.2-7.02-2.09-1.69-4.96-2.53-8.59-2.53-3.38,0-6.05.6-8.01,1.79-1.97,1.2-2.95,2.8-2.95,4.81,0,3.12,2.46,5.26,7.37,6.41l11.79,2.82c3.33.77,5.98,2.06,7.95,3.88s2.95,4.45,2.95,7.91c0,2.69-.76,5.03-2.27,7.02-1.52,1.99-3.7,3.53-6.54,4.61-2.84,1.09-6.16,1.63-9.97,1.63-4.02,0-7.51-.63-10.48-1.89-2.97-1.26-5.24-3.04-6.82-5.35Z"/>
        <path d="M171.59,18.89h6.86v44.86h-6.86v-19.68h-23.33v19.68h-6.86V18.89h6.86v19.35h23.33v-19.35Z"/>
        <path d="M218.76,24.72h-25.51v13.01h22.94v5.7h-22.94v14.48h25.25v5.83h-32.11V18.89h32.36v5.83Z"/>
        <path d="M253.49,63.75l-2.05-11.41c-.3-1.67-.72-2.92-1.25-3.75-.53-.83-1.32-1.42-2.37-1.76s-2.53-.51-4.45-.51h-12.18v17.43h-6.86V18.89h20.38c4.49,0,8.05,1.02,10.7,3.08,2.65,2.05,3.97,4.79,3.97,8.2,0,3.12-1,5.73-3.01,7.82-2.01,2.09-4.66,3.25-7.95,3.46v.45c3.03.13,5.23.83,6.6,2.11,1.37,1.28,2.33,3.42,2.88,6.41l2.56,13.33h-6.99ZM243.56,40.74c2.73,0,4.92-.76,6.57-2.27,1.64-1.52,2.47-3.51,2.47-5.99,0-2.35-.82-4.23-2.47-5.64-1.64-1.41-3.83-2.11-6.57-2.11h-12.37v16.02h12.37Z"/>
        <path d="M296.11,18.89h6.86v44.86h-6.86v-19.68h-23.33v19.68h-6.86V18.89h6.86v19.35h23.33v-19.35Z"/>
        <path d="M317.07,18.89v27.62c0,3.93.99,6.98,2.98,9.13,1.99,2.16,4.95,3.24,8.88,3.24s6.94-1.08,8.91-3.24c1.96-2.16,2.95-5.22,2.95-9.2v-27.56h6.86v27.75c0,5.72-1.66,10.18-4.97,13.36-3.31,3.18-7.89,4.77-13.75,4.77s-10.37-1.59-13.68-4.77c-3.31-3.18-4.97-7.66-4.97-13.43v-27.69h6.79Z"/>
        <path d="M387.41,43.08c2.2,2.07,3.3,4.69,3.3,7.85,0,3.93-1.35,7.05-4.04,9.36-2.69,2.31-6.32,3.46-10.89,3.46h-20.83V18.89h21.47c4.02,0,7.21.95,9.58,2.85,2.37,1.9,3.56,4.45,3.56,7.66,0,2.86-1,5.18-3.01,6.95-2.01,1.77-4.7,2.75-8.08,2.92v.45c3.76.17,6.74,1.29,8.94,3.36ZM361.8,38.24h11.41c2.86,0,5.14-.66,6.83-1.99s2.53-3.08,2.53-5.25c0-1.92-.66-3.45-1.99-4.58s-3.12-1.7-5.38-1.7h-13.39v13.52ZM381.45,56c1.52-1.28,2.28-2.99,2.28-5.13s-.89-3.85-2.66-5.13c-1.77-1.28-4.13-1.92-7.08-1.92h-12.18v14.1h13.59c2.52,0,4.54-.64,6.06-1.92Z"/>
      </g>
      <g>
        <path d="M0,0v82.66h29.22l12.11-12.11H12.1V12.1h58.45v58.45h-29.22l12.1,12.11h29.22V0H0Z"/>
        <polygon class="cls-1" points="29.22 58.45 41.33 70.55 53.43 58.45 29.22 58.45"/>
        <polygon class="cls-1" points="70.55 41.33 53.43 41.33 53.43 58.45 70.55 41.33"/>
        <polygon class="cls-1" points="12.1 41.33 29.22 41.33 29.22 58.45 12.1 41.33"/>
      </g>
    </g>
  </g>
</svg>